<svg xmlns="http://www.w3.org/2000/svg" xmlns:xlink="http://www.w3.org/1999/xlink" fill="none" version="1.1" width="2866.837890625" height="2876.045166015625" viewBox="0 0 2866.837890625 2876.045166015625"><defs><linearGradient x1="-0.17605946958065033" y1="0.06364872306585312" x2="-0.3513696491718292" y2="1.0189851522445679" id="master_svg0_9_3474"><stop offset="0%" stop-color="#3EC13A" stop-opacity="1"/><stop offset="100%" stop-color="#FC7812" stop-opacity="1"/></linearGradient><mask id="master_svg1_9_2004" style="mask-type:alpha" maskUnits="userSpaceOnUse"><g transform="matrix(-0.6427876353263855,-0.7660444378852844,-0.7660444378852844,0.6427876353263855,10850.546850272141,5059.692927746895)"><path d="M5110.1410078125,4023.2726533203127C5094.4022078125,3997.7836533203126,5083.2671078125,3969.9436533203125,5078.9390078125,3940.3016533203127C5055.8558678125,3782.2136533203125,5008.9263078125,3258.9850533203125,5408.7895078125,3307.1370533203126C5685.5385078125,3340.4634533203125,6480.7805078125,3628.8736533203123,6691.5305078125,4050.3376533203127C6742.0005078125,4151.268653320312,6462.3005078125,4512.7696533203125,6295.1305078125,4714.739653320313C6225.5505078125,4798.799653320312,6109.0805078124995,4824.649653320313,6008.8155078125,4781.5596533203125C6008.8155078125,4781.5596533203125,5496.2615078125,4561.2696533203125,5496.2615078125,4561.2696533203125C5448.4955078125,4540.739653320313,5408.2135078125,4505.989653320313,5380.8975078125,4461.749653320312C5380.8975078125,4461.749653320312,5110.1410078125,4023.2726533203127,5110.1410078125,4023.2726533203127C5110.1410078125,4023.2726533203127,5110.1410078125,4023.2726533203127,5110.1410078125,4023.2726533203127Z" fill-rule="evenodd" fill="#FFFFFF" fill-opacity="1"/></g></mask></defs><g transform="matrix(-0.9271838665008545,0.37460657954216003,-0.37460657954216003,-0.9271838665008545,6293.943206639924,2882.326068091439)"><g transform="matrix(-0.6427876353263855,-0.7660444378852844,-0.7660444378852844,0.6427876353263855,10850.546850272141,5059.692927746895)" style="opacity:0.25;"><path d="M5110.1410078125,4023.2726533203127C5094.4022078125,3997.7836533203126,5083.2671078125,3969.9436533203125,5078.9390078125,3940.3016533203127C5055.8558678125,3782.2136533203125,5008.9263078125,3258.9850533203125,5408.7895078125,3307.1370533203126C5685.5385078125,3340.4634533203125,6480.7805078125,3628.8736533203123,6691.5305078125,4050.3376533203127C6742.0005078125,4151.268653320312,6462.3005078125,4512.7696533203125,6295.1305078125,4714.739653320313C6225.5505078125,4798.799653320312,6109.0805078124995,4824.649653320313,6008.8155078125,4781.5596533203125C6008.8155078125,4781.5596533203125,5496.2615078125,4561.2696533203125,5496.2615078125,4561.2696533203125C5448.4955078125,4540.739653320313,5408.2135078125,4505.989653320313,5380.8975078125,4461.749653320312C5380.8975078125,4461.749653320312,5110.1410078125,4023.2726533203127,5110.1410078125,4023.2726533203127C5110.1410078125,4023.2726533203127,5110.1410078125,4023.2726533203127,5110.1410078125,4023.2726533203127Z" fill-rule="evenodd" fill="url(#master_svg0_9_3474)" fill-opacity="1"/></g><g transform="matrix(-0.9271838665008545,0.37460657954216003,-0.37460657954216003,-0.9271838665008545,6293.943206639924,2882.326068091439)" mask="url(#master_svg1_9_2004)"></g></g></svg>