<svg width="24" height="24" viewBox="0 0 24 24" xmlns="http://www.w3.org/2000/svg">
    <path d="M19.6695 5.02043C19.6634 5.00856 19.6532 4.99925 19.6409 4.99418C18.2112 4.33826 16.7026 3.87053 15.1526 3.60271C15.1386 3.60009 15.124 3.60198 15.1111 3.60811C15.0981 3.61423 15.0874 3.62429 15.0805 3.63683C14.8751 4.00969 14.6886 4.39268 14.5218 4.78433C12.851 4.53072 11.1516 4.53072 9.4808 4.78433C9.31287 4.39169 9.12339 4.0086 8.91324 3.63683C8.90603 3.62456 8.8953 3.61474 8.88243 3.60865C8.86956 3.60256 8.85515 3.60049 8.84109 3.60271C7.29098 3.86997 5.78223 4.33773 4.35279 4.99422C4.34056 4.99941 4.33023 5.00827 4.32324 5.01957C1.46465 9.2885 0.681579 13.4525 1.06573 17.5649C1.06681 17.5749 1.06991 17.5847 1.07483 17.5936C1.07976 17.6024 1.08642 17.6102 1.09442 17.6164C2.75895 18.8489 4.62074 19.7896 6.60035 20.3985C6.6143 20.4027 6.62918 20.4025 6.64301 20.398C6.65684 20.3934 6.66895 20.3848 6.67772 20.3732C7.10289 19.7946 7.47963 19.182 7.8041 18.5416C7.80856 18.5328 7.81111 18.5232 7.81157 18.5133C7.81204 18.5035 7.81041 18.4936 7.8068 18.4845C7.80319 18.4753 7.79768 18.467 7.79063 18.4601C7.78358 18.4532 7.77515 18.4479 7.76589 18.4445C7.1718 18.2172 6.59665 17.9432 6.04584 17.625C6.03584 17.6192 6.02743 17.6109 6.02137 17.601C6.01532 17.5911 6.01179 17.5799 6.0111 17.5683C6.01042 17.5567 6.01259 17.5451 6.01744 17.5346C6.02229 17.524 6.02966 17.5148 6.0389 17.5078C6.15481 17.4212 6.2687 17.332 6.38049 17.2402C6.3903 17.2321 6.40216 17.2269 6.41475 17.2252C6.42734 17.2235 6.44015 17.2254 6.45174 17.2306C10.0603 18.8775 13.9671 18.8775 17.533 17.2306C17.5446 17.2251 17.5576 17.2229 17.5703 17.2245C17.5831 17.226 17.5952 17.2312 17.6051 17.2393C17.7171 17.3316 17.8312 17.4212 17.9476 17.5078C17.9569 17.5148 17.9643 17.5239 17.9692 17.5344C17.9742 17.5449 17.9764 17.5565 17.9758 17.5681C17.9752 17.5796 17.9718 17.5909 17.9658 17.6008C17.9598 17.6108 17.9515 17.6191 17.9415 17.625C17.392 17.9459 16.8163 18.2197 16.2206 18.4437C16.2114 18.4472 16.203 18.4526 16.196 18.4596C16.189 18.4666 16.1835 18.475 16.18 18.4842C16.1764 18.4935 16.1749 18.5034 16.1754 18.5132C16.176 18.5231 16.1786 18.5328 16.1831 18.5416C16.513 19.1785 16.8892 19.7903 17.3087 20.3721C17.3172 20.3841 17.3292 20.393 17.3431 20.3977C17.357 20.4025 17.372 20.4027 17.386 20.3984C19.3692 19.7916 21.2342 18.8507 22.9009 17.6164C22.909 17.6105 22.9157 17.6029 22.9207 17.5942C22.9256 17.5854 22.9286 17.5757 22.9295 17.5657C23.3894 12.8114 22.1596 8.68152 19.6695 5.02043ZM8.34302 15.0608C7.25657 15.0608 6.36137 14.0638 6.36137 12.8394C6.36137 11.6149 7.2392 10.6178 8.34302 10.6178C9.45545 10.6178 10.342 11.6236 10.3246 12.8393C10.3246 14.0638 9.44675 15.0608 8.34302 15.0608ZM15.6698 15.0608C14.5834 15.0608 13.6882 14.0638 13.6882 12.8394C13.6882 11.6149 14.566 10.6178 15.6698 10.6178C16.7823 10.6178 17.6688 11.6236 17.6514 12.8393C17.6514 14.0638 16.7823 15.0608 15.6698 15.0608Z" fill="white"/>
</svg>
