<svg width="24" height="24" viewBox="0 0 24 24" xmlns="http://www.w3.org/2000/svg">
    <path d="M21.1304 18.7457C21.5068 17.5907 23.2704 6.07998 23.4884 3.81182C23.5542 3.12488 23.3371 2.6684 22.9118 2.46463C22.3975 2.21726 21.6358 2.34095 20.7522 2.6595C19.5402 3.09641 4.04667 9.67486 3.15151 10.0557C2.30262 10.4161 1.5 10.8094 1.5 11.3789C1.5 11.7793 1.73758 12.0044 2.39249 12.2384C3.0741 12.4814 4.79056 13.0019 5.80407 13.2813C6.7802 13.5509 7.89159 13.3169 8.51447 12.9298C9.17471 12.5196 16.7943 7.42094 17.3415 6.97425C17.8878 6.52756 18.3239 7.09972 17.8772 7.5473C17.4305 7.99399 12.2001 13.0704 11.5105 13.7734C10.6732 14.6267 11.2676 15.5112 11.8291 15.8653C12.4706 16.2693 17.0843 19.3641 17.7793 19.8606C18.4742 20.3572 19.179 20.5823 19.8241 20.5823C20.4692 20.5823 20.8091 19.7325 21.1304 18.7457Z" fill="green"/>
</svg>
